# xmcd CD database file
#
# Track frame offsets:
#	150
#	38279
#	57110
#	88127
#	118035
#	145730
#	168995
#	187826
#	216075
#	241552
#	264817
#	290017
#	319649
#
# Disc length: 4574 seconds
#
# Revision: 0
# Processed by: cddbd v1.5.2PL0 Copyright (c) Steve Scherf et al.
# Submitted via: CDex 1.70beta2
#
DISCID=a511dc0d
DTITLE=DJ Tiesto -  In Search Of Sunrise Vol.6 Weird Version CD1
DYEAR=2007
DGENRE=New Age
TTITLE0=Cressida - No More Lies
TTITLE1=Ikon - Signs (Jody Wisternoff Remix)
TTITLE2=Lank - Being Defenceless (Snake Sedri
TTITLE3=Miika Kuisma - One Morning By The Riverside
TTITLE4=Distant Fragment and Steve Mill - Utopia
TTITLE5=End-Jy and Andreas - Sitaro
TTITLE6=Dimitri Andreas - Verona
TTITLE7=Funabashi - The Shelter
TTITLE8=Global Experience - Madras
TTITLE9=Jes - In Ohm
TTITLE10=T4L - Alternative Route
TTITLE11=Ti￫sto - Bright Morning Star
TTITLE12=Marc Marzenit - Trozitos de Navidad (Primavera
EXTD=YEAR: 2007
EXTT0=
EXTT1=
EXTT2=
EXTT3=
EXTT4=
EXTT5=
EXTT6=
EXTT7=
EXTT8=
EXTT9=
EXTT10=
EXTT11=
EXTT12=
PLAYORDER=
